<svg xmlns="http://www.w3.org/2000/svg" viewBox="0 0 512 512"><defs><radialGradient id="mist"><stop stop-color="#a18b70" stop-opacity=".46"/><stop offset="1" stop-color="#463e34" stop-opacity="0"/></radialGradient><linearGradient id="body" x2="0" y2="1"><stop stop-color="#a18b70"/><stop offset="1" stop-color="#463e34"/></linearGradient></defs><ellipse cx="256" cy="264" rx="174" ry="194" fill="url(#mist)"/><path d="M185 252 Q137 315 137 413" fill="none" stroke="#463e34" stroke-width="12" stroke-linecap="round"/><path d="M185 252 Q200 315 200 413" fill="none" stroke="#463e34" stroke-width="15" stroke-linecap="round"/><path d="M325 252 Q323 315 323 413" fill="none" stroke="#463e34" stroke-width="12" stroke-linecap="round"/><path d="M325 252 Q379 315 379 413" fill="none" stroke="#463e34" stroke-width="15" stroke-linecap="round"/><path d="M182 225 Q140 315 179 395 L331 395 Q370 315 328 225 Z" fill="url(#body)" stroke="#d2b89c" stroke-width="5"/><path d="M185 180 L179 113 L217 163 Z" fill="#463e34" stroke="#a18b70" stroke-width="4"/><path d="M211.5 180 L205.5 106 L243.5 163 Z" fill="#463e34" stroke="#a18b70" stroke-width="4"/><path d="M238 180 L232 99 L270 163 Z" fill="#463e34" stroke="#a18b70" stroke-width="4"/><path d="M264.5 180 L258.5 92 L296.5 163 Z" fill="#463e34" stroke="#a18b70" stroke-width="4"/><path d="M291 180 L285 85 L323 163 Z" fill="#463e34" stroke="#a18b70" stroke-width="4"/><path d="M206 173 Q175 235 219 271 Q255 287 294 270 Q334 227 305 173 Z" fill="#463e34" stroke="#d2b89c" stroke-width="5"/><path d="M223 231 L243 225 M268 225 L286 231" stroke="#b9a6a1" stroke-width="7" stroke-linecap="round"/><path d="M237 263 Q255 274 275 263" stroke="#a18b70" fill="none" stroke-width="4"/><path d="M255 260 l-17 35 l26 22 l-16 32" fill="none" stroke="#d2b89c" opacity=".5" stroke-width="5"/></svg>