<svg xmlns="http://www.w3.org/2000/svg" viewBox="0 0 512 512"><defs><radialGradient id="mist"><stop stop-color="#a18b70" stop-opacity=".46"/><stop offset="1" stop-color="#463e34" stop-opacity="0"/></radialGradient><linearGradient id="body" x2="0" y2="1"><stop stop-color="#a18b70"/><stop offset="1" stop-color="#463e34"/></linearGradient></defs><ellipse cx="256" cy="264" rx="174" ry="194" fill="url(#mist)"/><path d="M164 252 Q124 315 124 413" fill="none" stroke="#463e34" stroke-width="12" stroke-linecap="round"/><path d="M164 252 Q185 315 185 413" fill="none" stroke="#463e34" stroke-width="15" stroke-linecap="round"/><path d="M304 252 Q307 315 307 413" fill="none" stroke="#463e34" stroke-width="12" stroke-linecap="round"/><path d="M304 252 Q371 315 371 413" fill="none" stroke="#463e34" stroke-width="15" stroke-linecap="round"/><path d="M161 225 Q119 315 158 395 L310 395 Q349 315 307 225 Z" fill="url(#body)" stroke="#d2b89c" stroke-width="5"/><path d="M164 164 L158 97 L196 147 Z" fill="#463e34" stroke="#a18b70" stroke-width="4"/><path d="M190.5 164 L184.5 90 L222.5 147 Z" fill="#463e34" stroke="#a18b70" stroke-width="4"/><path d="M217 164 L211 83 L249 147 Z" fill="#463e34" stroke="#a18b70" stroke-width="4"/><path d="M243.5 164 L237.5 76 L275.5 147 Z" fill="#463e34" stroke="#a18b70" stroke-width="4"/><path d="M270 164 L264 69 L302 147 Z" fill="#463e34" stroke="#a18b70" stroke-width="4"/><path d="M185 157 Q154 219 198 255 Q234 271 273 254 Q313 211 284 157 Z" fill="#463e34" stroke="#d2b89c" stroke-width="5"/><path d="M202 215 L222 209 M247 209 L265 215" stroke="#b9a6a1" stroke-width="7" stroke-linecap="round"/><path d="M216 247 Q234 258 254 247" stroke="#a18b70" fill="none" stroke-width="4"/><path d="M234 260 l-17 35 l26 22 l-16 32" fill="none" stroke="#d2b89c" opacity=".5" stroke-width="5"/></svg>