<svg xmlns="http://www.w3.org/2000/svg" viewBox="0 0 512 512"><defs><radialGradient id="mist"><stop stop-color="#89939b" stop-opacity=".46"/><stop offset="1" stop-color="#393c4a" stop-opacity="0"/></radialGradient><linearGradient id="body" x2="0" y2="1"><stop stop-color="#89939b"/><stop offset="1" stop-color="#393c4a"/></linearGradient></defs><ellipse cx="256" cy="264" rx="174" ry="194" fill="url(#mist)"/><path d="M190 252 Q128 315 128 413" fill="none" stroke="#393c4a" stroke-width="12" stroke-linecap="round"/><path d="M190 252 Q187 315 187 413" fill="none" stroke="#393c4a" stroke-width="15" stroke-linecap="round"/><path d="M330 252 Q317 315 317 413" fill="none" stroke="#393c4a" stroke-width="12" stroke-linecap="round"/><path d="M330 252 Q376 315 376 413" fill="none" stroke="#393c4a" stroke-width="15" stroke-linecap="round"/><path d="M187 225 Q145 315 184 395 L336 395 Q375 315 333 225 Z" fill="url(#body)" stroke="#bdbcb0" stroke-width="5"/><path d="M190 170 L184 103 L222 153 Z" fill="#393c4a" stroke="#89939b" stroke-width="4"/><path d="M243 170 L237 96 L275 153 Z" fill="#393c4a" stroke="#89939b" stroke-width="4"/><path d="M296 170 L290 89 L328 153 Z" fill="#393c4a" stroke="#89939b" stroke-width="4"/><path d="M211 163 Q180 225 224 261 Q260 277 299 260 Q339 217 310 163 Z" fill="#393c4a" stroke="#bdbcb0" stroke-width="5"/><path d="M228 221 L248 215 M273 215 L291 221" stroke="#b9a6a1" stroke-width="7" stroke-linecap="round"/><path d="M242 253 Q260 264 280 253" stroke="#89939b" fill="none" stroke-width="4"/><path d="M260 260 l-17 35 l26 22 l-16 32" fill="none" stroke="#bdbcb0" opacity=".5" stroke-width="5"/></svg>