<svg xmlns="http://www.w3.org/2000/svg" viewBox="0 0 512 512"><defs><radialGradient id="mist"><stop stop-color="#89939b" stop-opacity=".46"/><stop offset="1" stop-color="#393c4a" stop-opacity="0"/></radialGradient><linearGradient id="body" x2="0" y2="1"><stop stop-color="#89939b"/><stop offset="1" stop-color="#393c4a"/></linearGradient></defs><ellipse cx="256" cy="264" rx="174" ry="194" fill="url(#mist)"/><path d="M164 252 Q110 315 110 413" fill="none" stroke="#393c4a" stroke-width="12" stroke-linecap="round"/><path d="M164 252 Q178 315 178 413" fill="none" stroke="#393c4a" stroke-width="15" stroke-linecap="round"/><path d="M304 252 Q304 315 304 413" fill="none" stroke="#393c4a" stroke-width="12" stroke-linecap="round"/><path d="M304 252 Q370 315 370 413" fill="none" stroke="#393c4a" stroke-width="15" stroke-linecap="round"/><path d="M161 225 Q119 315 158 395 L310 395 Q349 315 307 225 Z" fill="url(#body)" stroke="#bdbcb0" stroke-width="5"/><path d="M164 145 L158 78 L196 128 Z" fill="#393c4a" stroke="#89939b" stroke-width="4"/><path d="M270 145 L264 71 L302 128 Z" fill="#393c4a" stroke="#89939b" stroke-width="4"/><path d="M185 138 Q154 200 198 236 Q234 252 273 235 Q313 192 284 138 Z" fill="#393c4a" stroke="#bdbcb0" stroke-width="5"/><path d="M202 196 L222 190 M247 190 L265 196" stroke="#b9a6a1" stroke-width="7" stroke-linecap="round"/><path d="M216 228 Q234 239 254 228" stroke="#89939b" fill="none" stroke-width="4"/><path d="M234 260 l-17 35 l26 22 l-16 32" fill="none" stroke="#bdbcb0" opacity=".5" stroke-width="5"/></svg>