<svg xmlns="http://www.w3.org/2000/svg" viewBox="0 0 512 512"><defs><radialGradient id="mist"><stop stop-color="#71816e" stop-opacity=".46"/><stop offset="1" stop-color="#2c3f31" stop-opacity="0"/></radialGradient><linearGradient id="body" x2="0" y2="1"><stop stop-color="#71816e"/><stop offset="1" stop-color="#2c3f31"/></linearGradient></defs><ellipse cx="256" cy="264" rx="174" ry="194" fill="url(#mist)"/><path d="M194 252 Q111 315 111 413" fill="none" stroke="#2c3f31" stroke-width="12" stroke-linecap="round"/><path d="M194 252 Q170 315 170 413" fill="none" stroke="#2c3f31" stroke-width="15" stroke-linecap="round"/><path d="M334 252 Q300 315 300 413" fill="none" stroke="#2c3f31" stroke-width="12" stroke-linecap="round"/><path d="M334 252 Q359 315 359 413" fill="none" stroke="#2c3f31" stroke-width="15" stroke-linecap="round"/><path d="M191 225 Q149 315 188 395 L340 395 Q379 315 337 225 Z" fill="url(#body)" stroke="#afbc91" stroke-width="5"/><path d="M194 171 L188 104 L226 154 Z" fill="#2c3f31" stroke="#71816e" stroke-width="4"/><path d="M229.33333333333334 171 L223.33333333333334 97 L261.33333333333337 154 Z" fill="#2c3f31" stroke="#71816e" stroke-width="4"/><path d="M264.6666666666667 171 L258.6666666666667 90 L296.6666666666667 154 Z" fill="#2c3f31" stroke="#71816e" stroke-width="4"/><path d="M300 171 L294 83 L332 154 Z" fill="#2c3f31" stroke="#71816e" stroke-width="4"/><path d="M215 164 Q184 226 228 262 Q264 278 303 261 Q343 218 314 164 Z" fill="#2c3f31" stroke="#afbc91" stroke-width="5"/><path d="M232 222 L252 216 M277 216 L295 222" stroke="#b9a6a1" stroke-width="7" stroke-linecap="round"/><path d="M246 254 Q264 265 284 254" stroke="#71816e" fill="none" stroke-width="4"/><path d="M264 260 l-17 35 l26 22 l-16 32" fill="none" stroke="#afbc91" opacity=".5" stroke-width="5"/></svg>