<svg xmlns="http://www.w3.org/2000/svg" viewBox="0 0 512 512"><defs><radialGradient id="mist"><stop stop-color="#71816e" stop-opacity=".46"/><stop offset="1" stop-color="#2c3f31" stop-opacity="0"/></radialGradient><linearGradient id="body" x2="0" y2="1"><stop stop-color="#71816e"/><stop offset="1" stop-color="#2c3f31"/></linearGradient></defs><ellipse cx="256" cy="264" rx="174" ry="194" fill="url(#mist)"/><path d="M179 252 Q113 315 113 413" fill="none" stroke="#2c3f31" stroke-width="12" stroke-linecap="round"/><path d="M179 252 Q171 315 171 413" fill="none" stroke="#2c3f31" stroke-width="15" stroke-linecap="round"/><path d="M319 252 Q292 315 292 413" fill="none" stroke="#2c3f31" stroke-width="12" stroke-linecap="round"/><path d="M319 252 Q364 315 364 413" fill="none" stroke="#2c3f31" stroke-width="15" stroke-linecap="round"/><path d="M194 218 Q30 92 81 310 L204 310 M304 218 Q475 92 430 310 L294 310" stroke="#afbc91" fill="#2c3f31" stroke-width="5"/><path d="M176 225 Q134 315 173 395 L325 395 Q364 315 322 225 Z" fill="url(#body)" stroke="#afbc91" stroke-width="5"/><path d="M179 153 L173 86 L211 136 Z" fill="#2c3f31" stroke="#71816e" stroke-width="4"/><path d="M285 153 L279 79 L317 136 Z" fill="#2c3f31" stroke="#71816e" stroke-width="4"/><path d="M200 146 Q169 208 213 244 Q249 260 288 243 Q328 200 299 146 Z" fill="#2c3f31" stroke="#afbc91" stroke-width="5"/><path d="M217 204 L237 198 M262 198 L280 204" stroke="#b9a6a1" stroke-width="7" stroke-linecap="round"/><path d="M231 236 Q249 247 269 236" stroke="#71816e" fill="none" stroke-width="4"/><path d="M249 260 l-17 35 l26 22 l-16 32" fill="none" stroke="#afbc91" opacity=".5" stroke-width="5"/></svg>