<svg xmlns="http://www.w3.org/2000/svg" viewBox="0 0 512 512"><defs><radialGradient id="mist"><stop stop-color="#8e7870" stop-opacity=".46"/><stop offset="1" stop-color="#352b30" stop-opacity="0"/></radialGradient><linearGradient id="body" x2="0" y2="1"><stop stop-color="#8e7870"/><stop offset="1" stop-color="#352b30"/></linearGradient></defs><ellipse cx="256" cy="264" rx="174" ry="194" fill="url(#mist)"/><path d="M187 252 Q117 315 117 413" fill="none" stroke="#352b30" stroke-width="12" stroke-linecap="round"/><path d="M187 252 Q182 315 182 413" fill="none" stroke="#352b30" stroke-width="15" stroke-linecap="round"/><path d="M327 252 Q306 315 306 413" fill="none" stroke="#352b30" stroke-width="12" stroke-linecap="round"/><path d="M327 252 Q371 315 371 413" fill="none" stroke="#352b30" stroke-width="15" stroke-linecap="round"/><path d="M202 218 Q30 92 81 310 L212 310 M312 218 Q475 92 430 310 L302 310" stroke="#c7a79b" fill="#352b30" stroke-width="5"/><path d="M184 225 Q142 315 181 395 L333 395 Q372 315 330 225 Z" fill="url(#body)" stroke="#c7a79b" stroke-width="5"/><path d="M187 159 L181 92 L219 142 Z" fill="#352b30" stroke="#8e7870" stroke-width="4"/><path d="M222.33333333333334 159 L216.33333333333334 85 L254.33333333333334 142 Z" fill="#352b30" stroke="#8e7870" stroke-width="4"/><path d="M257.6666666666667 159 L251.66666666666669 78 L289.6666666666667 142 Z" fill="#352b30" stroke="#8e7870" stroke-width="4"/><path d="M293 159 L287 71 L325 142 Z" fill="#352b30" stroke="#8e7870" stroke-width="4"/><path d="M208 152 Q177 214 221 250 Q257 266 296 249 Q336 206 307 152 Z" fill="#352b30" stroke="#c7a79b" stroke-width="5"/><path d="M225 210 L245 204 M270 204 L288 210" stroke="#b9a6a1" stroke-width="7" stroke-linecap="round"/><path d="M239 242 Q257 253 277 242" stroke="#8e7870" fill="none" stroke-width="4"/><path d="M257 260 l-17 35 l26 22 l-16 32" fill="none" stroke="#c7a79b" opacity=".5" stroke-width="5"/></svg>