<svg xmlns="http://www.w3.org/2000/svg" viewBox="0 0 512 512"><defs><radialGradient id="mist"><stop stop-color="#8e7870" stop-opacity=".46"/><stop offset="1" stop-color="#352b30" stop-opacity="0"/></radialGradient><linearGradient id="body" x2="0" y2="1"><stop stop-color="#8e7870"/><stop offset="1" stop-color="#352b30"/></linearGradient></defs><ellipse cx="256" cy="264" rx="174" ry="194" fill="url(#mist)"/><path d="M173 252 Q125 315 125 413" fill="none" stroke="#352b30" stroke-width="12" stroke-linecap="round"/><path d="M173 252 Q194 315 194 413" fill="none" stroke="#352b30" stroke-width="15" stroke-linecap="round"/><path d="M313 252 Q320 315 320 413" fill="none" stroke="#352b30" stroke-width="12" stroke-linecap="round"/><path d="M313 252 Q378 315 378 413" fill="none" stroke="#352b30" stroke-width="15" stroke-linecap="round"/><path d="M170 225 Q128 315 167 395 L319 395 Q358 315 316 225 Z" fill="url(#body)" stroke="#c7a79b" stroke-width="5"/><path d="M173 177 L167 110 L205 160 Z" fill="#352b30" stroke="#8e7870" stroke-width="4"/><path d="M279 177 L273 103 L311 160 Z" fill="#352b30" stroke="#8e7870" stroke-width="4"/><path d="M194 170 Q163 232 207 268 Q243 284 282 267 Q322 224 293 170 Z" fill="#352b30" stroke="#c7a79b" stroke-width="5"/><path d="M211 228 L231 222 M256 222 L274 228" stroke="#b9a6a1" stroke-width="7" stroke-linecap="round"/><path d="M225 260 Q243 271 263 260" stroke="#8e7870" fill="none" stroke-width="4"/><path d="M243 260 l-17 35 l26 22 l-16 32" fill="none" stroke="#c7a79b" opacity=".5" stroke-width="5"/></svg>