<svg xmlns="http://www.w3.org/2000/svg" viewBox="0 0 512 512"><defs><radialGradient id="mist"><stop stop-color="#8d727f" stop-opacity=".46"/><stop offset="1" stop-color="#292532" stop-opacity="0"/></radialGradient><linearGradient id="body" x2="0" y2="1"><stop stop-color="#8d727f"/><stop offset="1" stop-color="#292532"/></linearGradient></defs><ellipse cx="256" cy="264" rx="174" ry="194" fill="url(#mist)"/><path d="M174 252 Q133 315 133 413" fill="none" stroke="#292532" stroke-width="12" stroke-linecap="round"/><path d="M174 252 Q190 315 190 413" fill="none" stroke="#292532" stroke-width="15" stroke-linecap="round"/><path d="M314 252 Q310 315 310 413" fill="none" stroke="#292532" stroke-width="12" stroke-linecap="round"/><path d="M314 252 Q373 315 373 413" fill="none" stroke="#292532" stroke-width="15" stroke-linecap="round"/><path d="M189 218 Q30 92 81 310 L199 310 M299 218 Q475 92 430 310 L289 310" stroke="#d5a2ae" fill="#292532" stroke-width="5"/><path d="M171 225 Q129 315 168 395 L320 395 Q359 315 317 225 Z" fill="url(#body)" stroke="#d5a2ae" stroke-width="5"/><path d="M174 166 L168 99 L206 149 Z" fill="#292532" stroke="#8d727f" stroke-width="4"/><path d="M227 166 L221 92 L259 149 Z" fill="#292532" stroke="#8d727f" stroke-width="4"/><path d="M280 166 L274 85 L312 149 Z" fill="#292532" stroke="#8d727f" stroke-width="4"/><path d="M195 159 Q164 221 208 257 Q244 273 283 256 Q323 213 294 159 Z" fill="#292532" stroke="#d5a2ae" stroke-width="5"/><path d="M212 217 L232 211 M257 211 L275 217" stroke="#b9a6a1" stroke-width="7" stroke-linecap="round"/><path d="M226 249 Q244 260 264 249" stroke="#8d727f" fill="none" stroke-width="4"/><path d="M244 260 l-17 35 l26 22 l-16 32" fill="none" stroke="#d5a2ae" opacity=".5" stroke-width="5"/></svg>