<svg xmlns="http://www.w3.org/2000/svg" viewBox="0 0 512 512"><defs><radialGradient id="mist"><stop stop-color="#8d727f" stop-opacity=".46"/><stop offset="1" stop-color="#292532" stop-opacity="0"/></radialGradient><linearGradient id="body" x2="0" y2="1"><stop stop-color="#8d727f"/><stop offset="1" stop-color="#292532"/></linearGradient></defs><ellipse cx="256" cy="264" rx="174" ry="194" fill="url(#mist)"/><path d="M177 252 Q129 315 129 413" fill="none" stroke="#292532" stroke-width="12" stroke-linecap="round"/><path d="M177 252 Q188 315 188 413" fill="none" stroke="#292532" stroke-width="15" stroke-linecap="round"/><path d="M317 252 Q309 315 309 413" fill="none" stroke="#292532" stroke-width="12" stroke-linecap="round"/><path d="M317 252 Q372 315 372 413" fill="none" stroke="#292532" stroke-width="15" stroke-linecap="round"/><path d="M174 225 Q132 315 171 395 L323 395 Q362 315 320 225 Z" fill="url(#body)" stroke="#d5a2ae" stroke-width="5"/><path d="M177 175 L171 108 L209 158 Z" fill="#292532" stroke="#8d727f" stroke-width="4"/><path d="M212.33333333333334 175 L206.33333333333334 101 L244.33333333333334 158 Z" fill="#292532" stroke="#8d727f" stroke-width="4"/><path d="M247.66666666666669 175 L241.66666666666669 94 L279.6666666666667 158 Z" fill="#292532" stroke="#8d727f" stroke-width="4"/><path d="M283 175 L277 87 L315 158 Z" fill="#292532" stroke="#8d727f" stroke-width="4"/><path d="M198 168 Q167 230 211 266 Q247 282 286 265 Q326 222 297 168 Z" fill="#292532" stroke="#d5a2ae" stroke-width="5"/><path d="M215 226 L235 220 M260 220 L278 226" stroke="#b9a6a1" stroke-width="7" stroke-linecap="round"/><path d="M229 258 Q247 269 267 258" stroke="#8d727f" fill="none" stroke-width="4"/><path d="M247 260 l-17 35 l26 22 l-16 32" fill="none" stroke="#d5a2ae" opacity=".5" stroke-width="5"/></svg>